<svg xmlns="http://www.w3.org/2000/svg" data-name="Layer 1" viewBox="0 0 389.67 551.53">
  <path fill="#ccc" d="M0 550.34a1.19 1.19 0 0 0 1.18 1.19h387.3a1.19 1.19 0 1 0 0-2.38H1.19A1.19 1.19 0 0 0 0 550.33Z"/>
  <path fill="#ccc" d="M559.94 561.6a44.33 44.33 0 0 1 12.82-.7 1.51 1.51 0 0 0 1.5-1.5 1.53 1.53 0 0 0-1.5-1.5 47.11 47.11 0 0 0-13.62.8 1.5 1.5 0 0 0 .8 2.9Z" opacity=".5" style="isolation:isolate" transform="translate(-405.16 -174.24)"/>
  <path fill="#f2f2f2" d="M51.8 361.26c-8.25-10.97-13.02-23.24-13.18-37.23a3.02 3.02 0 0 1 1.84-3.84l28.12-9.95a3.02 3.02 0 0 1 3.84 1.83L85.6 349.3a3.02 3.02 0 0 1-1.84 3.85l-28.12 9.95a3.02 3.02 0 0 1-3.84-1.84Z"/>
  <path d="M463.3 534.84a3.02 3.02 0 0 1-3.84-1.84c-8.25-10.97-13.02-23.24-13.17-37.23a2.98 2.98 0 0 1-.11-1.54l-.55.2a3.02 3.02 0 0 0-1.84 3.84c.15 13.99 4.92 26.26 13.17 37.23a3.02 3.02 0 0 0 3.85 1.84l28.12-9.95a3 3 0 0 0 1.94-2.3Z" opacity=".2" style="isolation:isolate" transform="translate(-405.16 -174.24)"/>
  <path fill="#fff" d="m71.32 332.73-18.83 6.72a1.2 1.2 0 0 1-.8-2.26l18.82-6.71a1.2 1.2 0 0 1 .8 2.25Zm-16.9-.95-4.14 1.48a1.2 1.2 0 1 1-.81-2.26l4.15-1.48a1.2 1.2 0 0 1 .8 2.26Zm20.44 10.88-18.82 6.72a1.2 1.2 0 0 1-.8-2.26l18.81-6.71a1.2 1.2 0 0 1 .82 2.25Zm-1.77-4.96-18.82 6.72a1.2 1.2 0 0 1-.81-2.26l18.82-6.72a1.2 1.2 0 0 1 .8 2.26Z"/>
  <circle cx="53.77" cy="315.57" r="5" fill="#ccc"/>
  <path fill="#2f2e41" d="M236.77 99.61c.08 7.32 2.41 22.56.74 29.73l-.27-.6a32.9 32.9 0 0 1-4.41 2.95 21.13 21.13 0 0 0-4.9-7.2 25.3 25.3 0 0 1-1.17 9.96c-6.25 2.25-17.22-4.84-24.02-4.99-10.94-.25-21.6-2.97-32.05-5.85-3.71-1.02-7.79-2.35-9.47-5.43s1.33-6.4 1.13-9.88c-1.4-24.75 10.39-28.9 21.61-35.52 2.47-1.45 3.68-4.59 6.47-5.8 3.87-1.7 8.48-.89 12.69-.04a6.41 6.41 0 0 1-4.24-4.64 5.79 5.79 0 0 1 2.26-5.6c2.32-1.79 5.78-2 8.74-1.25a29.21 29.21 0 0 1 8.02 3.94 15.93 15.93 0 0 1 4.4 3.56 4.41 4.41 0 0 1 .52 5 5.72 5.72 0 0 1-4.47 2.17 14.96 14.96 0 0 1-3.94-.4 29.97 29.97 0 0 1 15.27 9.23c5.01 5.83 7 13.34 7.09 20.66Z"/>
  <path fill="#ffb6b6" d="M61.97 170.16a9.16 9.16 0 0 0 11.96 4.48 8.79 8.79 0 0 0 1.27-.71l25.75 18.92 14.2-9.69-38.08-22.1a9.13 9.13 0 0 0-10.82-2.68 8.74 8.74 0 0 0-4.38 11.56l.1.22Zm265.39-17.17a9.16 9.16 0 0 0-7.98 9.97 8.78 8.78 0 0 0 .28 1.43l-26 18.58 4.8 16.5 32.85-29.3a9.13 9.13 0 0 0 5.91-9.46 8.74 8.74 0 0 0-9.62-7.75l-.24.03ZM138.9 533.9l-8.37-.07-3.71-33.03 12.36.1-.28 33z"/>
  <path fill="#2f2e41" d="M112.09 547.21a3.75 3.75 0 0 0 3.7 3.78l16.65.13 2.91-5.9 1.07 5.93 6.28.06-1.59-21.17-2.18-.14-8.91-.62-2.87-.19-.05 5.99-13.37 9.07a3.74 3.74 0 0 0-1.64 3.06Z"/>
  <path fill="#ffb6b6" d="m249.22 496.82-6.83 4.84-22.31-24.65 10.08-7.13 19.06 26.94z"/>
  <path fill="#2f2e41" d="M235.24 523.29a3.75 3.75 0 0 0 5.22.9l13.58-9.62-1.08-6.49 4.33 4.2 5.13-3.63-13.65-16.25-1.86 1.16-7.6 4.7-2.44 1.53 3.46 4.89-5.55 15.16a3.74 3.74 0 0 0 .46 3.45Z"/>
  <path fill="#ffb6b6" d="m145.17 266.07 24.32-56.45h55.99l-16.15 58.92-64.16-2.47z"/>
  <path fill="#f2f2f2" d="M93.77 534.16a2.27 2.27 0 0 1-1.64-3.94l.15-.62-.06-.14a6.1 6.1 0 0 0-11.24.04c-1.84 4.43-4.18 8.86-4.76 13.54a18.03 18.03 0 0 0 .32 6.2 72.28 72.28 0 0 1-6.57-30.02 69.77 69.77 0 0 1 .43-7.78q.36-3.18 1-6.31a73.12 73.12 0 0 1 14.5-30.99 19.46 19.46 0 0 0 8.09-8.4 14.84 14.84 0 0 0 1.35-4.05c-.4.05-1.49-5.95-1.2-6.32-.54-.83-1.52-1.25-2.12-2.06-2.99-4.04-7.1-3.34-9.24 2.16-4.58 2.31-4.63 6.15-1.82 9.83 1.8 2.35 2.04 5.53 3.6 8.04l-.48.61a73.6 73.6 0 0 0-7.68 12.17 30.6 30.6 0 0 0-1.83-14.2c-1.75-4.23-5.02-7.78-7.91-11.42a6.28 6.28 0 0 0-11.18 3.08l-.02.16q.64.36 1.26.77a3.08 3.08 0 0 1-1.24 5.6l-.07.01a30.63 30.63 0 0 0 .81 4.58c-3.7 14.32 4.3 19.53 15.7 19.77l.75.38a75.11 75.11 0 0 0-4.04 19.02 71.24 71.24 0 0 0 .05 11.5l-.02-.13a18.83 18.83 0 0 0-6.43-10.87c-4.94-4.06-11.93-5.56-17.26-8.82a3.53 3.53 0 0 0-5.42 3.43l.03.15a20.67 20.67 0 0 1 2.31 1.11q.65.37 1.26.77a3.08 3.08 0 0 1-1.24 5.6l-.06.02c-.05 0-.08 0-.13.02a30.65 30.65 0 0 0 5.64 8.82c2.31 12.5 12.26 13.69 22.89 10.05a75.1 75.1 0 0 0 5.05 14.72h18.02l.18-.6a20.48 20.48 0 0 1-4.99-.3l4.02-4.93a1.11 1.11 0 0 0 .08-.1l2.04-2.51a29.99 29.99 0 0 0-.88-7.64Zm195 0a2.27 2.27 0 0 0 1.64-3.94l-.15-.62.06-.14a6.1 6.1 0 0 1 11.24.04c1.84 4.43 4.18 8.86 4.76 13.54a18.03 18.03 0 0 1-.32 6.2 72.28 72.28 0 0 0 6.57-30.02 69.76 69.76 0 0 0-.43-7.78q-.36-3.18-1-6.31a73.12 73.12 0 0 0-14.5-30.99 19.46 19.46 0 0 1-8.09-8.4 14.84 14.84 0 0 1-1.35-4.05c.4.05 1.49-5.95 1.2-6.32.54-.83 1.52-1.25 2.12-2.06 2.99-4.04 7.1-3.34 9.24 2.16 4.58 2.31 4.63 6.15 1.81 9.83-1.78 2.35-2.03 5.53-3.6 8.04l.5.61a73.6 73.6 0 0 1 7.67 12.17 30.6 30.6 0 0 1 1.83-14.2c1.75-4.23 5.02-7.78 7.9-11.42a6.28 6.28 0 0 1 11.2 3.08l.01.16q-.64.36-1.26.77a3.08 3.08 0 0 0 1.24 5.6l.07.01a30.62 30.62 0 0 1-.81 4.58c3.7 14.32-4.3 19.53-15.7 19.77l-.75.38a75.12 75.12 0 0 1 4.04 19.02 71.25 71.25 0 0 1-.05 11.5l.02-.13a18.83 18.83 0 0 1 6.43-10.87c4.94-4.06 11.93-5.56 17.26-8.82a3.53 3.53 0 0 1 5.41 3.43l-.02.15a20.68 20.68 0 0 0-2.32 1.11q-.64.37-1.25.77a3.08 3.08 0 0 0 1.24 5.6l.06.02c.04 0 .08 0 .13.02a30.65 30.65 0 0 1-5.64 8.82c-2.31 12.5-12.26 13.69-22.89 10.05a75.09 75.09 0 0 1-5.05 14.72h-18.02l-.18-.6a20.48 20.48 0 0 0 4.98-.3l-4-4.93a1.11 1.11 0 0 1-.1-.1l-2.03-2.51a29.99 29.99 0 0 1 .88-7.64Z"/>
  <path fill="#2f2e41" d="m145.17 261.83-24.13 50.36 1.72 200.65h20.67s4.02-5.42 4.02-9.22-6.83-4.35-2.28-9 6.08-6.19 6.08-10.75v-72.92l16.3-70.7-1.72 77.68 58.57 69.9 13.65-13.64s3.99-1.76 0-5.53-6.48 2.9-6.75-7.66 2-8.28-.28-10.56-34.18-40.36-34.18-40.36 28.86-122.97 14.43-146.52Z"/>
  <path fill="#e6e6e6" d="M212.79 267.36s-62.3-22.03-57.74-34.19 12.22-9.82 3.07-13.64-15.2-4.6-9.52-9.91 14.05-10.64 14.05-15.95 6.83-47.1 6.83-47.1h10.95l11.09-19h15.66l7.89 17.47h16.66l.81 26.6s1.08 51.36-4.02 53.4-9.65 2.05-5.1 6.61 7.16 6.92 5.1 11.06-15.73 24.65-15.73 24.65Z"/>
  <path fill="#e6e6e6" d="m221.9 152.64 9.83-7.6s16.76 0 19.04 9.12 16 31.41 16 31.41 13.63-7.86 18.95-7.86 9.12 3.8 9.12-.76-3.04-5.32 1.52-5.32 16.7-4.55 16.7-4.55l12.97 12.96s-1.57 12.1-6.88 11.35-8.36-4.56-8.36 0 3.04 11.4-3.8 12.15-52.42 12.16-52.42 12.16l-31.15-45.59Zm-39.5 0-9.82-7.6s-16.77 0-19.05 9.12-16.76 31.41-16.76 31.41-12.87-7.86-18.19-7.86-9.11 3.8-9.11-.76 3.04-5.32-1.52-5.32-16.71-4.55-16.71-4.55l-12.97 12.96s1.57 12.1 6.89 11.35 8.35-4.56 8.35 0-3.03 11.4 3.8 12.15 52.42 12.16 52.42 12.16l31.15-45.59Z"/>
  <circle cx="197.53" cy="99.2" r="24.24" fill="#ffb6b6"/>
  <path fill="#2f2e41" d="M223.98 95.54c-2.85 3.45-7.09 3.27-10.86 2.72a88.34 88.34 0 0 1-3.57-.58c-.21-.67-.45-1.34-.72-1.99a21.13 21.13 0 0 0-4.9-7.2 24.9 24.9 0 0 1-.61 7.93q-3.32-.76-6.6-1.7a7.66 7.66 0 0 1-6.38-8.4c-3.15 2.4-6.58 4.47-10.18 4.51a9.5 9.5 0 0 1-8.9-6.93c-.98-3-.83-6.46-.43-9.7.48-3.85 1.56-8.08 4.16-9.63 2.09-1.26 4.5-.36 6.65.66a76.6 76.6 0 0 1 13.4 8.22l.05 1.05c1.08-5.17 4.65-9.16 8.54-9.56 2.62-.26 5.18.95 7.65 2.17a36.08 36.08 0 0 1 8.91 5.61 19.86 19.86 0 0 1 6.02 10.37c.93 4.33.23 9.47-2.23 12.45Z"/>
  <path fill="#2f2e41" d="M199.98 61.9c.25.02-.36-.12-.16-.04a1.98 1.98 0 0 1-.28-.16c-.02 0-.22-.17-.09-.05a1.95 1.95 0 0 1-.64-.9 8.06 8.06 0 0 1-.38-2.67 8.45 8.45 0 0 0-.6-3.49 2.08 2.08 0 0 0-3.27-.73c-.82.8-.88 2.16-.94 3.24a10.42 10.42 0 0 0 .35 3.32 9.53 9.53 0 0 0 2.92 4.59 9.97 9.97 0 0 0 5.77 2.43 1.51 1.51 0 0 0 1.07-2.56l-2.69-2.54a1.5 1.5 0 1 0-2.12 2.12L201.6 67l1.06-2.56a5.97 5.97 0 0 1-1.3-.26 5.02 5.02 0 0 1-1.3-.57 6.23 6.23 0 0 1-1.1-.78 8.57 8.57 0 0 1-.63-.6l-.21-.24s-.28-.35-.16-.19a8.46 8.46 0 0 1-.8-1.35 3.42 3.42 0 0 1-.2-.52 7.94 7.94 0 0 1-.24-.9 7.8 7.8 0 0 1-.1-1.93 7.9 7.9 0 0 1 .08-.82 3.25 3.25 0 0 0 .09-.43c0-.37-.05.2-.24.28l-.76.2a.82.82 0 0 1-.62-.36q-.05-.19.03.07a4.9 4.9 0 0 1 .13.6 14.16 14.16 0 0 1 .1 1.44 14.26 14.26 0 0 0 .35 3.01 4.83 4.83 0 0 0 4.2 3.8 1.51 1.51 0 0 0 1.5-1.5 1.53 1.53 0 0 0-1.5-1.5Z"/>
  <path fill="#26a69a" d="M323.8 159.26c-8.25-10.97-13.02-23.24-13.18-37.23a3.02 3.02 0 0 1 1.84-3.84l28.12-9.95a3.02 3.02 0 0 1 3.84 1.83l13.18 37.23a3.02 3.02 0 0 1-1.84 3.85l-28.12 9.95a3.02 3.02 0 0 1-3.84-1.84Z"/>
  <path d="M735.3 332.84a3.02 3.02 0 0 1-3.84-1.84c-8.25-10.97-13.02-23.24-13.17-37.23a2.98 2.98 0 0 1-.11-1.54l-.55.2a3.02 3.02 0 0 0-1.84 3.84c.15 13.99 4.92 26.26 13.17 37.23a3.02 3.02 0 0 0 3.85 1.84l28.12-9.95a3 3 0 0 0 1.94-2.3Z" opacity=".2" style="isolation:isolate" transform="translate(-405.16 -174.24)"/>
  <path fill="#fff" d="m343.32 130.73-18.83 6.72a1.2 1.2 0 0 1-.8-2.26l18.82-6.71a1.2 1.2 0 0 1 .8 2.25Zm-16.9-.95-4.14 1.48a1.2 1.2 0 1 1-.8-2.26l4.14-1.48a1.2 1.2 0 0 1 .8 2.26Zm20.44 10.88-18.82 6.72a1.2 1.2 0 1 1-.81-2.25l18.82-6.72a1.2 1.2 0 0 1 .81 2.25Zm-1.77-4.96-18.82 6.72a1.2 1.2 0 1 1-.81-2.26l18.82-6.72a1.2 1.2 0 1 1 .81 2.26Z"/>
  <circle cx="325.77" cy="113.57" r="5" fill="#3f3d56"/>
  <path fill="#26a69a" d="M78.87 31.82c5.04-12.77 13-23.25 24.84-30.7a3.02 3.02 0 0 1 4.24-.45l23.19 18.76a3.02 3.02 0 0 1 .44 4.24l-24.83 30.7a3.02 3.02 0 0 1-4.24.45L79.3 36.06a3.02 3.02 0 0 1-.44-4.24Z"/>
  <path d="M487.92 211.12a3.02 3.02 0 0 1-.45-4.24c5.04-12.77 13-23.25 24.84-30.7a2.98 2.98 0 0 1 1.26-.9l-.46-.37a3.02 3.02 0 0 0-4.24.44c-11.84 7.45-19.8 17.94-24.83 30.7a3.02 3.02 0 0 0 .44 4.25l23.2 18.75a3 3 0 0 0 2.97.46Z" opacity=".2" style="isolation:isolate" transform="translate(-405.16 -174.24)"/>
  <path fill="#fff" d="M113.4 33.53 97.82 21a1.2 1.2 0 0 1 1.5-1.86l15.58 12.52a1.2 1.2 0 0 1-1.5 1.87Zm-8.03-14.89-3.42-2.76a1.2 1.2 0 0 1 1.5-1.87l3.43 2.76a1.2 1.2 0 0 1-1.5 1.87Zm1.42 23.11L91.22 29.22a1.2 1.2 0 0 1 1.5-1.87l15.57 12.53a1.2 1.2 0 0 1-1.5 1.87Zm3.31-4.11L94.51 25.1a1.2 1.2 0 1 1 1.5-1.87l15.58 12.53a1.2 1.2 0 0 1-1.5 1.87Z"/>
  <circle cx="118.85" cy="9.6" r="5" fill="#3f3d56"/>
  <path fill="#26a69a" d="M21.52 181.3c-12.2-16.23-19.25-34.38-19.49-55.07a4.46 4.46 0 0 1 2.72-5.69l41.59-14.71a4.46 4.46 0 0 1 5.69 2.71l19.48 55.07a4.46 4.46 0 0 1-2.71 5.7L27.2 184a4.46 4.46 0 0 1-5.7-2.7Z"/>
  <path d="M436.07 354.56a4.46 4.46 0 0 1-5.69-2.72c-12.2-16.23-19.25-34.38-19.48-55.07a4.4 4.4 0 0 1-.17-2.28l-.81.29a4.46 4.46 0 0 0-2.72 5.69c.23 20.69 7.28 38.84 19.48 55.07a4.46 4.46 0 0 0 5.7 2.71l41.58-14.71a4.44 4.44 0 0 0 2.88-3.4Z" opacity=".2" style="isolation:isolate" transform="translate(-405.16 -174.24)"/>
  <path fill="#fff" d="m50.4 139.1-27.85 9.94a1.77 1.77 0 1 1-1.2-3.34l27.85-9.94a1.77 1.77 0 1 1 1.2 3.34Zm-25-1.4-6.12 2.18a1.77 1.77 0 0 1-1.2-3.34l6.13-2.19a1.77 1.77 0 0 1 1.2 3.34Zm30.23 16.09-27.84 9.94a1.77 1.77 0 1 1-1.19-3.34l27.84-9.94a1.77 1.77 0 1 1 1.2 3.34Zm-2.62-7.34-27.84 9.93a1.77 1.77 0 1 1-1.2-3.34l27.85-9.93a1.77 1.77 0 1 1 1.2 3.34Z"/>
  <circle cx="24.44" cy="113.72" r="7.4" fill="#3f3d56"/>
  <path fill="#f2f2f2" d="M295.96 448.79c-13.73-.07-26.38-3.7-37.61-12.04a3.02 3.02 0 0 1-1.96-3.79l9.1-28.4a3.02 3.02 0 0 1 3.78-1.96l37.61 12.04a3.02 3.02 0 0 1 1.96 3.79l-9.1 28.4a3.02 3.02 0 0 1-3.78 1.96Z"/>
  <path d="M704.43 617.57a3.02 3.02 0 0 1-3.79 1.95c-13.72-.07-26.38-3.7-37.6-12.03a2.98 2.98 0 0 1-1.3-.85l-.18.56a3.02 3.02 0 0 0 1.95 3.79c11.23 8.34 23.89 11.96 37.61 12.03a3.02 3.02 0 0 0 3.8-1.95l9.08-28.4a3 3 0 0 0-.66-2.95Z" opacity=".2" style="isolation:isolate" transform="translate(-405.16 -174.24)"/>
  <path fill="#fff" d="m285.05 415.98-6.04 19.06a1.2 1.2 0 1 1-2.29-.72l6.04-19.06a1.2 1.2 0 0 1 2.3.72Zm-10.98 12.88-1.33 4.19a1.2 1.2 0 1 1-2.28-.72l1.33-4.2a1.2 1.2 0 1 1 2.29.72Zm21.03-9.69-6.04 19.05a1.2 1.2 0 1 1-2.28-.71v-.01l6.04-19.06a1.2 1.2 0 1 1 2.29.72Zm-5.02-1.59-6.04 19.05a1.2 1.2 0 1 1-2.29-.72l6.04-19.06a1.2 1.2 0 1 1 2.29.72Z"/>
  <circle cx="260.77" cy="419.57" r="5" fill="#ccc"/>
  <ellipse cx="770.99" cy="397.31" fill="#fff" rx="3.6" ry="5.18" transform="rotate(-76 456.45 570.52)"/>
  <ellipse cx="737.14" cy="397.09" fill="#3f3d56" rx="3.6" ry="5.18" transform="rotate(-76 422.61 570.3)"/>
  <ellipse cx="777.34" cy="425.39" fill="#ff6584" rx="3.6" ry="5.18" transform="rotate(-76 462.8 598.6)"/>
  <ellipse cx="787.98" cy="437" fill="#e6e6e6" rx="3.27" ry="2.28" transform="rotate(-84 488 576.36)"/>
  <ellipse cx="790.77" cy="458.2" fill="#3f3d56" rx="3.27" ry="2.28" transform="rotate(-84 490.79 597.57)"/>
  <ellipse cx="756.17" cy="417.79" fill="#e6e6e6" rx="3.27" ry="2.28" transform="rotate(-84 456.19 557.15)"/>
  <ellipse cx="773.2" cy="411.39" fill="#ff6584" rx="3.27" ry="2.28" transform="rotate(-84 473.22 550.75)"/>
  <ellipse cx="752.21" cy="394.1" fill="#3f3d56" rx="3.27" ry="2.28" transform="rotate(-84 452.24 533.46)"/>
  <ellipse cx="454.99" cy="385.31" fill="#fff" rx="3.6" ry="5.18" transform="rotate(-76 140.45 558.52)"/>
  <ellipse cx="421.14" cy="385.09" fill="#3f3d56" rx="3.6" ry="5.18" transform="rotate(-76 106.61 558.3)"/>
  <ellipse cx="461.34" cy="413.39" fill="#ff6584" rx="3.6" ry="5.18" transform="rotate(-76 146.8 586.6)"/>
  <ellipse cx="471.98" cy="425" fill="#e6e6e6" rx="3.27" ry="2.28" transform="rotate(-84 172 564.36)"/>
  <ellipse cx="474.77" cy="446.2" fill="#3f3d56" rx="3.27" ry="2.28" transform="rotate(-84 174.79 585.56)"/>
  <ellipse cx="440.17" cy="405.79" fill="#e6e6e6" rx="3.27" ry="2.28" transform="rotate(-84 140.19 545.15)"/>
  <ellipse cx="457.2" cy="399.39" fill="#ff6584" rx="3.27" ry="2.28" transform="rotate(-84 157.22 538.75)"/>
  <ellipse cx="436.21" cy="382.1" fill="#3f3d56" rx="3.27" ry="2.28" transform="rotate(-84 136.24 521.46)"/>
  <path fill="#f2f2f2" d="M270.8 308.26c-8.25-10.97-13.02-23.24-13.18-37.23a3.02 3.02 0 0 1 1.84-3.84l28.12-9.95a3.02 3.02 0 0 1 3.84 1.83l13.18 37.23a3.02 3.02 0 0 1-1.84 3.85l-28.12 9.95a3.02 3.02 0 0 1-3.84-1.84Z"/>
  <path d="M682.3 481.84a3.02 3.02 0 0 1-3.84-1.84c-8.25-10.97-13.02-23.24-13.17-37.23a2.98 2.98 0 0 1-.11-1.54l-.55.2a3.02 3.02 0 0 0-1.84 3.84c.15 13.99 4.92 26.26 13.17 37.23a3.02 3.02 0 0 0 3.85 1.84l28.12-9.95a3 3 0 0 0 1.94-2.3Z" opacity=".2" style="isolation:isolate" transform="translate(-405.16 -174.24)"/>
  <path fill="#fff" d="m290.32 279.73-18.83 6.72a1.2 1.2 0 0 1-.8-2.26l18.82-6.71a1.2 1.2 0 0 1 .8 2.25Zm-16.9-.95-4.14 1.48a1.2 1.2 0 1 1-.8-2.26l4.14-1.48a1.2 1.2 0 0 1 .8 2.26Zm20.44 10.88-18.82 6.72a1.2 1.2 0 1 1-.81-2.25l18.82-6.72a1.2 1.2 0 0 1 .81 2.25Zm-1.77-4.96-18.82 6.72a1.2 1.2 0 1 1-.81-2.26l18.82-6.72a1.2 1.2 0 1 1 .81 2.26Z"/>
  <circle cx="272.77" cy="262.57" r="5" fill="#ccc"/>
</svg>