<svg width="2786" height="977" viewBox="0 0 2786 977" fill="none" xmlns="http://www.w3.org/2000/svg">
<rect x="553" y="184" width="199" height="655" rx="99.5" transform="rotate(-30 553 184)" fill="white" fill-opacity="0.89"/>
<rect x="207.781" y="184.926" width="199" height="653.318" rx="99.5" transform="rotate(-30 207.781 184.926)" fill="white" fill-opacity="0.81"/>
<rect x="65" y="577" width="199" height="201.438" rx="99.5" transform="rotate(-30 65 577)" fill="white" fill-opacity="0.75"/>
<path d="M1457.11 252.25H1448.38L1448.61 260.977L1449.97 311.745C1436.21 294.277 1419.73 279.442 1400.55 267.27C1372.5 249.184 1339.79 240.28 1302.76 240.28C1270.88 240.28 1240.8 246.336 1212.62 258.494C1184.83 270.318 1160.27 286.889 1138.98 308.177L1138.96 308.198L1138.94 308.219C1117.94 329.507 1101.39 354.192 1089.3 382.212L1089.28 382.246L1089.27 382.281C1077.41 410.45 1071.5 440.505 1071.5 472.363C1071.5 504.797 1077.55 535.295 1089.71 563.766C1101.82 592.113 1118.68 617.105 1140.26 638.686C1161.83 660.252 1186.8 677.237 1215.12 689.625L1215.16 689.64L1215.19 689.655C1243.67 701.814 1274.17 707.865 1306.61 707.865C1342.78 707.865 1374.39 699.25 1401.07 681.667L1401.1 681.649L1401.13 681.63C1419.22 669.504 1434.56 654.813 1447.14 637.594L1448.61 701.197L1448.8 709.5H1457.11H1516.97H1525.47V701V260.75V252.25H1516.97H1457.11ZM1426.76 554.662L1426.75 554.697L1426.73 554.733C1415.66 578.766 1399.82 597.776 1379.21 611.97C1358.88 625.69 1334.38 632.725 1305.33 632.725C1277.48 632.725 1251.76 625.719 1228 611.683C1204.43 597.594 1185.49 578.662 1171.09 554.778C1156.82 530.803 1149.64 504.11 1149.64 474.5C1149.64 445.134 1156.56 418.541 1170.3 394.54C1184.41 370.406 1203.2 351.367 1226.74 337.301L1226.75 337.294L1226.76 337.287C1250.48 323.005 1276.6 315.848 1305.33 315.848C1334.09 315.848 1358.46 322.88 1378.81 336.622C1399.42 350.536 1415.4 369.415 1426.76 393.483L1426.77 393.5L1426.78 393.517C1438.14 417.315 1443.91 444.254 1443.91 474.5C1443.91 503.852 1438.15 530.528 1426.76 554.662ZM1586.03 699.25V707.75H1594.53H1654.39H1662.89V699.25V446.598C1662.89 424.681 1668.21 404.967 1678.79 387.258C1689.46 369.379 1703.69 355.147 1721.57 344.47C1739.6 333.869 1759.34 328.558 1780.94 328.558C1791.41 328.558 1802.25 330.257 1813.49 333.735L1820.92 336.034L1823.87 328.84L1848.24 269.418L1851.87 260.564L1842.65 258.003C1826.49 253.515 1809.76 251.28 1792.49 251.28C1762.65 251.28 1734.92 258.005 1709.41 271.505C1691.59 280.941 1676.06 292.697 1662.89 306.765V271.75V263.25H1654.39H1594.53H1586.03V271.75V699.25ZM2232.07 707.75H2246.82L2239.43 694.987L2094.48 444.936L2235.58 277.222L2247.34 263.25H2229.08H2150.83H2146.87L2144.32 266.289L1966.5 478.377V58V49.5H1958H1898.15H1889.65V58V699.25V707.75H1898.15H1958H1966.5V699.25V598.028L2042.25 507.526L2155.88 703.513L2158.34 707.75H2163.23H2232.07ZM2619.72 263.25H2613.79L2611.74 268.823L2493.44 591.298L2383.2 268.999L2381.23 263.25H2375.16H2309.74H2297.66L2301.74 274.622L2454.19 699.23L2377.43 910.092L2373.28 921.5H2385.42H2449.12H2455.07L2457.11 915.912L2690.99 274.662L2695.15 263.25H2683H2619.72Z" fill="white" stroke="white" stroke-width="17"/>
</svg>
