<svg xmlns="http://www.w3.org/2000/svg" fill="none" viewBox="0 0 2786 977">
  <rect width="199" height="655" x="553" y="184" fill="#009688" rx="99.5" transform="rotate(-30 553 184)"/>
  <rect width="199" height="653.318" x="207.781" y="184.926" fill="#80CBC4" rx="99.5" transform="rotate(-30 207.781 184.926)"/>
  <rect width="199" height="201.438" x="120" y="577" fill="#CFFDFA" rx="99.5" transform="rotate(-30 120 577)"/>
  <path fill="#fff" d="M1457.11 274.75h59.86V715h-59.86l-2.14-92.265c-13.97 27.075-33.49 49.02-58.57 65.835-25.09 16.53-55.02 24.795-89.79 24.795-31.36 0-60.72-5.842-88.08-17.527-27.36-11.97-51.45-28.358-72.26-49.163-20.81-20.805-37.05-44.887-48.74-72.247-11.69-27.36-17.53-56.715-17.53-88.065 0-30.78 5.7-59.708 17.1-86.783 11.69-27.075 27.65-50.872 47.89-71.392 20.52-20.52 44.18-36.48 70.97-47.88 27.08-11.685 56.02-17.528 86.8-17.528 35.63 0 66.7 8.55 93.21 25.65 26.51 16.815 47.6 38.903 63.28 66.263l-2.14-79.943Zm-151.78 380.475c30.49 0 56.72-7.41 78.67-22.23 21.94-15.105 38.76-35.34 50.45-60.705 11.97-25.365 17.96-53.295 17.96-83.79 0-31.35-5.99-59.565-17.96-84.645-11.97-25.365-28.93-45.457-50.88-60.277-21.95-14.82-48.03-22.23-78.24-22.23-30.22 0-57.87 7.552-82.95 22.657-24.8 14.82-44.61 34.913-59.43 60.278-14.54 25.365-21.81 53.437-21.81 84.217 0 31.065 7.55 59.28 22.66 84.645 15.11 25.08 35.06 45.03 59.86 59.85 25.08 14.82 52.31 22.23 81.67 22.23Zm297.2 58.025v-427.5h59.86v58.995c15.1-21.66 34.77-38.902 59-51.727 24.23-12.825 50.59-19.238 79.1-19.238 16.53 0 32.49 2.138 47.89 6.413L1824 339.615c-11.97-3.705-23.65-5.557-35.06-5.557-23.08 0-44.32 5.7-63.7 17.1-19.1 11.4-34.35 26.647-45.75 45.742-11.4 19.095-17.1 40.328-17.1 63.698V713.25h-59.86Zm629.54 0h-68.84l-119.71-206.482L1958 608.94v104.31h-59.85V72H1958v443.745l192.83-229.995h78.25l-144.94 172.283 147.93 255.217Zm370.65-427.5H2666L2432.12 927h-63.7l77.81-213.75-153.49-427.5h65.42l118 344.993 126.56-344.993Z"/>
</svg>